<svg width="66" height="65" viewBox="0 0 66 65" fill="none" xmlns="http://www.w3.org/2000/svg">
<path d="M45.0167 23.3728C43.8981 23.3728 42.9705 22.452 42.9705 21.3415V17.604C42.9705 14.7603 41.7428 11.9978 39.6147 10.0749C37.4594 8.12487 34.6766 7.23112 31.73 7.50196C26.8191 7.96237 22.5084 12.9457 22.5084 18.1457V20.7728C22.5084 21.8832 21.5808 22.804 20.4622 22.804C19.3436 22.804 18.416 21.8832 18.416 20.7728V18.1186C18.416 10.8332 24.3364 4.11654 31.3481 3.43946C35.4405 3.06029 39.3692 4.33321 42.3703 7.06862C45.3441 9.74987 47.0629 13.5957 47.0629 17.604V21.3415C47.0629 22.452 46.1353 23.3728 45.0167 23.3728Z" fill="white"/>
<path d="M40.9242 61.6145H24.5545C11.9499 61.6145 9.60355 55.7916 9.00333 50.1312L6.95712 33.9083C6.65701 30.9833 6.54788 26.7854 9.41257 23.6437C11.868 20.9354 15.9332 19.6354 21.8262 19.6354H43.6525C49.5728 19.6354 53.638 20.9625 56.0661 23.6437C58.9035 26.7854 58.8217 30.9833 58.5216 33.8541L56.4754 50.1312C55.8752 55.7916 53.5288 61.6145 40.9242 61.6145ZM21.8262 23.6979C17.2154 23.6979 14.0506 24.5916 12.441 26.3791C11.1041 27.8416 10.6676 30.0895 11.0223 33.4479L13.0685 49.6708C13.5323 54.0041 14.7327 57.5791 24.5545 57.5791H40.9242C50.746 57.5791 51.9464 54.0312 52.4102 49.725L54.4564 33.4479C54.8111 30.1437 54.3746 27.8958 53.0377 26.4062C51.4281 24.5916 48.2633 23.6979 43.6525 23.6979H21.8262Z" fill="white"/>
<path d="M42.07 35.6147C40.5422 35.6147 39.3145 34.3959 39.3145 32.9063C39.3145 31.4167 40.5422 30.198 42.0427 30.198C43.5433 30.198 44.771 31.4167 44.771 32.9063C44.771 34.3959 43.5706 35.6147 42.07 35.6147Z" fill="white"/>
<path d="M22.9724 35.6147C21.4445 35.6147 20.2168 34.3959 20.2168 32.9063C20.2168 31.4167 21.4445 30.198 22.9451 30.198C24.4456 30.198 25.6734 31.4167 25.6734 32.9063C25.6734 34.3959 24.4729 35.6147 22.9724 35.6147Z" fill="white"/>
</svg>
