<svg width="66" height="65" viewBox="0 0 66 65" fill="none" xmlns="http://www.w3.org/2000/svg">
<g clip-path="url(#clip0_575_14)">
<path d="M4.15882 11.4888C7.78061 9.98567 12.9739 8.36474 18.0239 7.86099C23.4668 7.31661 28.0831 8.11692 30.7595 10.916V50.5091C26.9331 48.356 22.0836 48.0594 17.6106 48.5063C12.7815 48.9938 7.91157 50.3791 4.15882 51.801V11.4888ZM34.852 10.916C37.5284 8.11692 42.1446 7.31661 47.5876 7.86099C52.6376 8.36474 57.8309 9.98567 61.4527 11.4888V51.801C57.6958 50.3791 52.8299 48.9897 48.0009 48.5104C43.5238 48.0594 38.6784 48.3519 34.852 50.5091V10.916ZM32.8057 7.24349C28.7747 3.80255 22.9307 3.29067 17.6106 3.8188C11.4147 4.44036 5.16147 6.5488 1.26548 8.30786C0.908008 8.46926 0.604867 8.72936 0.392249 9.05712C0.17963 9.38488 0.066515 9.76646 0.0664062 10.1563L0.0664063 54.8438C0.066501 55.1837 0.152499 55.5181 0.316523 55.8164C0.480547 56.1147 0.717353 56.3674 1.00525 56.5513C1.29315 56.7353 1.62293 56.8445 1.9644 56.8692C2.30587 56.8938 2.6481 56.8329 2.95975 56.6922C6.56926 55.0672 12.3846 53.1132 18.0198 52.5485C23.7861 51.9716 28.6192 52.9019 31.2097 56.1113C31.4014 56.3485 31.6444 56.54 31.9206 56.6716C32.1969 56.8031 32.4994 56.8714 32.8057 56.8714C33.1121 56.8714 33.4146 56.8031 33.6909 56.6716C33.9671 56.54 34.2101 56.3485 34.4018 56.1113C36.9923 52.9019 41.8254 51.9716 47.5876 52.5485C53.2269 53.1132 59.0463 55.0672 62.6517 56.6922C62.9634 56.8329 63.3056 56.8938 63.6471 56.8692C63.9886 56.8445 64.3183 56.7353 64.6062 56.5513C64.8941 56.3674 65.1309 56.1147 65.295 55.8164C65.459 55.5181 65.545 55.1837 65.5451 54.8438V10.1563C65.545 9.76646 65.4319 9.38488 65.2192 9.05712C65.0066 8.72936 64.7035 8.46926 64.346 8.30786C60.45 6.5488 54.1968 4.44036 48.0009 3.8188C42.6807 3.28661 36.8368 3.80255 32.8057 7.24349Z" fill="#F8F8F8"/>
</g>
<defs>
<clipPath id="clip0_575_14">
<rect width="65.4787" height="65" fill="white" transform="translate(0.0664062)"/>
</clipPath>
</defs>
</svg>
