<svg width="74" height="74" viewBox="0 0 74 74" fill="none" xmlns="http://www.w3.org/2000/svg">
<path d="M48.3991 46.2499H24.6667C21.2596 46.2499 18.5 43.4594 18.5 40.0184C18.5 36.5774 21.2688 33.7685 24.6698 33.9227C39.1306 34.5825 47.1596 37.4562 50.5173 39.0102C51.7383 39.5775 52.4167 40.8324 52.4167 42.1891C52.4195 42.7195 52.3178 43.2453 52.1175 43.7365C51.9171 44.2276 51.622 44.6745 51.2489 45.0516C50.8758 45.4286 50.4321 45.7285 49.9432 45.9341C49.4542 46.1397 48.9295 46.247 48.3991 46.2499Z" stroke="black" stroke-width="4.625" stroke-linecap="round" stroke-linejoin="round"/>
<path d="M52.4167 43.1669L64.565 10.7426C65.2125 8.96969 64.1025 7.06419 62.1384 6.56469C57.1003 5.28511 51.8247 7.12586 50.1658 11.6707C48.2357 16.9463 46.25 25.0709 46.25 37.0003M46.25 24.5436C46.25 24.5436 35.8253 20.2454 31.82 22.0153C30.6175 22.5456 29.5938 23.4244 28.8723 24.5436C27.75 26.2888 27.75 28.8294 27.75 33.9169M18.5 40.0836V49.3336C18.5 52.2073 18.5 53.6441 18.0313 54.7757C17.7214 55.5244 17.267 56.2047 16.694 56.7776C16.1211 57.3506 15.4408 57.805 14.6921 58.1149C13.5605 58.5836 12.1237 58.5836 9.25 58.5836M37 46.2503V64.7503M30.8333 64.7503H43.1667" stroke="black" stroke-width="4.625" stroke-linecap="round" stroke-linejoin="round"/>
</svg>
