<svg width="66" height="65" viewBox="0 0 66 65" fill="none" xmlns="http://www.w3.org/2000/svg">
<path d="M38.9588 42.6562V47.7344C38.9588 49.0812 38.4198 50.3728 37.4605 51.3252C36.5011 52.2775 35.2 52.8125 33.8432 52.8125H13.3811C12.0244 52.8125 10.7233 52.2775 9.76393 51.3252C8.80458 50.3728 8.26563 49.0812 8.26562 47.7344V17.2656C8.26563 15.9188 8.80458 14.6272 9.76393 13.6748C10.7233 12.7225 12.0244 12.1875 13.3811 12.1875H32.8201C35.6452 12.1875 38.9588 14.4612 38.9588 17.2656V22.3438M47.1436 42.6562L57.3746 32.5L47.1436 22.3438M22.5891 32.5H55.3284" stroke="#F8F8F8" stroke-width="3.75" stroke-linecap="round" stroke-linejoin="round"/>
</svg>
