<svg width="51" height="50" viewBox="0 0 51 50" fill="none" xmlns="http://www.w3.org/2000/svg">
<path d="M35.4642 6.664H28.462C27.1968 6.668 27.2441 8.54 28.462 8.529H35.4642V9.486H28.462C27.2039 9.475 27.2502 11.346 28.462 11.351H35.4642V12.329H28.462C27.2039 12.329 27.2502 14.199 28.462 14.194H35.4642V15.126H28.462C27.23 15.135 27.2502 17.007 28.462 17.013H35.4642V17.947H28.462C27.23 17.943 27.225 19.812 28.462 19.812H35.4642V20.744H28.462C27.23 20.748 27.225 22.619 28.462 22.61H35.4642V23.565H28.462C27.23 23.554 27.225 25.423 28.462 25.43H35.4642V26.36H28.462C27.23 26.359 27.2502 28.232 28.462 28.226H35.4642V46.385C35.4683 49.152 39.7022 49.102 39.7143 46.385V3.89C39.7022 2.626 38.6566 1.028 36.936 1.023H28.462C27.1968 1.024 27.2441 2.896 28.462 2.888L35.4642 2.911V3.841H28.462C27.1988 3.835 27.2462 5.706 28.462 5.707H35.4642V6.664ZM27.9805 38.858C27.9765 35.628 24.6038 32.154 20.5744 34.404V22.05L17.9683 1.675C17.9139 1.136 17.4536 1.009 17.1443 1C16.825 1.009 16.1853 1.136 16.1158 1.675L13.5228 22.05V34.404C9.49338 32.154 6.22952 35.65 6.22852 38.833C6.22952 41.665 8.42558 43.991 11.3973 43.984C14.3912 43.991 16.5449 41.384 16.5449 38.833V26H17.5523V38.833C17.5523 41.689 19.7806 43.803 22.2567 43.937C22.2154 45.503 22.7301 47.737 23.6992 48.623C24.8355 49.663 26.1884 48.333 25.6334 47.25C25.0975 46.242 24.5716 45.645 24.9987 43.444C26.7838 42.624 27.9765 40.898 27.9805 38.858ZM11.5121 41.399C10.8329 41.399 10.1814 41.1311 9.70108 40.6543C9.22076 40.1775 8.95092 39.5308 8.95092 38.8565C8.95092 38.1822 9.22076 37.5355 9.70108 37.0587C10.1814 36.5819 10.8329 36.314 11.5121 36.314C12.9083 36.322 14.0457 37.459 14.0557 38.858C14.0534 39.5284 13.7852 40.171 13.3091 40.6465C12.833 41.1221 12.1875 41.3924 11.5121 41.399ZM20.1463 38.858C20.1486 38.1871 20.4169 37.5441 20.8931 37.068C21.3692 36.592 22.0151 36.3211 22.6909 36.314C23.3667 36.3206 24.0127 36.5913 24.4889 37.0675C24.965 37.5437 25.2329 38.187 25.2345 38.858C25.2334 39.5288 24.9656 40.1721 24.4893 40.648C24.0129 41.1238 23.3666 41.3937 22.6909 41.399C22.0153 41.3927 21.3695 41.1225 20.8933 40.6469C20.417 40.1713 20.1486 39.5286 20.1463 38.858Z" fill="#F8F8F8"/>
</svg>
