<svg width="74" height="74" viewBox="0 0 74 74" fill="none" xmlns="http://www.w3.org/2000/svg">
<path d="M51.476 9.8627H41.1885C39.3296 9.86862 39.3992 12.6392 41.1885 12.6229H51.476V14.0393H41.1885C39.34 14.023 39.4081 16.7921 41.1885 16.7995H51.476V18.2469H41.1885C39.34 18.2469 39.4081 21.0145 41.1885 21.0071H51.476V22.3865H41.1885C39.3785 22.3998 39.4081 25.1703 41.1885 25.1792H51.476V26.5615H41.1885C39.3785 26.5556 39.3711 29.3217 41.1885 29.3217H51.476V30.7011H41.1885C39.3785 30.707 39.3711 33.4761 41.1885 33.4628H51.476V34.8762H41.1885C39.3785 34.8599 39.3711 37.626 41.1885 37.6364H51.476V39.0128H41.1885C39.3785 39.0113 39.4081 41.7833 41.1885 41.7745H51.476V68.6498C51.4819 72.7449 57.7024 72.6709 57.7201 68.6498V5.75718C57.7024 3.88646 56.1661 1.52142 53.6383 1.51402H41.1885C39.3296 1.5155 39.3992 4.28606 41.1885 4.27422L51.476 4.30826V5.68466H41.1885C39.3326 5.67578 39.4022 8.44486 41.1885 8.44634H51.476V9.8627ZM40.4811 57.5098C40.4752 52.7294 35.5201 47.5879 29.6001 50.9179V32.634L25.7714 2.47898C25.6914 1.68126 25.0151 1.4933 24.5607 1.47998C24.0916 1.4933 23.1518 1.68126 23.0496 2.47898L19.2401 32.634V50.9179C13.3201 47.5879 8.52492 52.762 8.52344 57.4728C8.52492 61.6642 11.7513 65.1067 16.1173 65.0963C20.5159 65.1067 23.6801 61.2483 23.6801 57.4728V38.48H25.1601V57.4728C25.1601 61.6997 28.4339 64.8284 32.0717 65.0267C32.011 67.3444 32.7673 70.6507 34.1911 71.962C35.8605 73.5012 37.8482 71.5328 37.0327 69.93C36.2453 68.4381 35.4728 67.5546 36.1003 64.2971C38.7228 63.0835 40.4752 60.529 40.4811 57.5098ZM16.286 61.2705C15.2881 61.2705 14.3309 60.8741 13.6253 60.1684C12.9196 59.4627 12.5231 58.5056 12.5231 57.5076C12.5231 56.5096 12.9196 55.5525 13.6253 54.8468C14.3309 54.1411 15.2881 53.7447 16.286 53.7447C18.3373 53.7565 20.0082 55.4393 20.023 57.5098C20.0196 58.5021 19.6255 59.453 18.9261 60.1569C18.2267 60.8607 17.2782 61.2608 16.286 61.2705ZM28.9711 57.5098C28.9746 56.5169 29.3687 55.5653 30.0683 54.8607C30.7679 54.1561 31.7167 53.7552 32.7096 53.7447C33.7026 53.7544 34.6517 54.1551 35.3512 54.8599C36.0507 55.5647 36.4443 56.5168 36.4466 57.5098C36.4451 58.5027 36.0516 59.4547 35.3518 60.159C34.652 60.8632 33.7024 61.2627 32.7096 61.2705C31.7171 61.2612 30.7683 60.8613 30.0686 60.1574C29.3689 59.4535 28.9746 58.5023 28.9711 57.5098Z" fill="black"/>
</svg>
