<svg width="68" height="68" viewBox="0 0 68 68" fill="none" xmlns="http://www.w3.org/2000/svg">
<path d="M33.9998 62.3333C29.5609 61.7666 25.5943 60.6333 22.0998 58.9333C18.6054 57.2333 15.6426 55.0139 13.2116 52.275C10.7806 49.5361 8.9267 46.3609 7.64981 42.7493C6.37292 39.1377 5.73542 35.1352 5.73731 30.7416C10.9318 31.2611 15.3234 32.2055 18.9123 33.575C22.5012 34.9444 25.4176 36.8805 27.6616 39.3833C29.9056 41.8861 31.5225 45.015 32.5123 48.7701C33.5021 52.5252 33.9979 57.0463 33.9998 62.3333ZM33.9998 38.4625C32.9137 36.8097 31.4385 35.1805 29.5741 33.575C27.7098 31.9694 25.5489 30.5055 23.0915 29.1833C23.3748 27.2 23.847 25.1458 24.5081 23.0208C25.1693 20.8958 25.972 18.8067 26.9165 16.7535C27.8609 14.7002 28.9357 12.7282 30.1408 10.8375C31.3459 8.94668 32.6323 7.22307 33.9998 5.66663C35.3693 7.22496 36.6565 8.94857 37.8616 10.8375C39.0668 12.7263 40.1406 14.6983 41.0831 16.7535C42.0257 18.8086 42.8285 20.8977 43.4915 23.0208C44.1545 25.1439 44.6267 27.1981 44.9081 29.1833C42.4526 30.4583 40.2926 31.8986 38.4283 33.5041C36.564 35.1097 35.0878 36.7625 33.9998 38.4625ZM39.6665 61.2C39.572 57.8944 39.3246 54.8363 38.9241 52.0256C38.5237 49.215 37.8975 46.5592 37.0456 44.0583C39.2651 40.2333 42.3232 37.1166 46.22 34.7083C50.1168 32.3 55.4642 30.9777 62.2623 30.7416C62.3095 38.2027 60.3139 44.6372 56.2755 50.0451C52.237 55.453 46.7007 59.1713 39.6665 61.2Z" fill="black"/>
</svg>
