<svg width="66" height="65" viewBox="0 0 66 65" fill="none" xmlns="http://www.w3.org/2000/svg">
<path d="M25.3178 59.5833L24.2265 50.9166C23.6354 50.6909 23.0788 50.4201 22.5568 50.1041C22.0348 49.7882 21.5228 49.4496 21.0208 49.0885L12.9041 52.4739L5.40137 39.6093L12.4267 34.3281C12.3812 34.0121 12.3585 33.7079 12.3585 33.4154V31.5873C12.3585 31.2929 12.3812 30.9878 12.4267 30.6718L5.40137 25.3906L12.9041 12.526L21.0208 15.9114C21.5209 15.5503 22.0439 15.2118 22.5895 14.8958C23.1352 14.5798 23.6808 14.309 24.2265 14.0833L25.3178 5.41663H40.3233L41.4146 14.0833C42.0058 14.309 42.5632 14.5798 43.0871 14.8958C43.6109 15.2118 44.122 15.5503 44.6204 15.9114L52.737 12.526L60.2398 25.3906L53.2144 30.6718C53.2599 30.9878 53.2826 31.2929 53.2826 31.5873V33.4127C53.2826 33.707 53.2372 34.0121 53.1462 34.3281L60.1715 39.6093L52.6688 52.4739L44.6204 49.0885C44.1202 49.4496 43.5973 49.7882 43.0516 50.1041C42.506 50.4201 41.9603 50.6909 41.4146 50.9166L40.3233 59.5833H25.3178ZM32.957 41.9791C35.5943 41.9791 37.8451 41.0538 39.7095 39.2031C41.5738 37.3524 42.506 35.118 42.506 32.5C42.506 29.8819 41.5738 27.6475 39.7095 25.7968C37.8451 23.9461 35.5943 23.0208 32.957 23.0208C30.2742 23.0208 28.0115 23.9461 26.169 25.7968C24.3265 27.6475 23.4062 29.8819 23.408 32.5C23.4098 35.118 24.3311 37.3524 26.1717 39.2031C28.0124 41.0538 30.2742 41.9791 32.957 41.9791Z" fill="#F8F8F8"/>
</svg>
