<svg width="66" height="65" viewBox="0 0 66 65" fill="none" xmlns="http://www.w3.org/2000/svg">
<path d="M53.1562 11.0625H47.0176V9.03125C47.0176 8.49253 46.802 7.97587 46.4183 7.59494C46.0346 7.21401 45.5141 7 44.9714 7C44.4287 7 43.9083 7.21401 43.5245 7.59494C43.1408 7.97587 42.9252 8.49253 42.9252 9.03125V11.0625H22.4631V9.03125C22.4631 8.49253 22.2475 7.97587 21.8638 7.59494C21.48 7.21401 20.9596 7 20.4169 7C19.8742 7 19.3538 7.21401 18.97 7.59494C18.5863 7.97587 18.3707 8.49253 18.3707 9.03125V11.0625H12.2321C11.1467 11.0625 10.1058 11.4905 9.33829 12.2524C8.57081 13.0142 8.13965 14.0476 8.13965 15.125V55.75C8.13965 56.8274 8.57081 57.8608 9.33829 58.6226C10.1058 59.3845 11.1467 59.8125 12.2321 59.8125H53.1562C54.2416 59.8125 55.2825 59.3845 56.05 58.6226C56.8175 57.8608 57.2487 56.8274 57.2487 55.75V15.125C57.2487 14.0476 56.8175 13.0142 56.05 12.2524C55.2825 11.4905 54.2416 11.0625 53.1562 11.0625ZM18.3707 15.125V17.1562C18.3707 17.695 18.5863 18.2116 18.97 18.5926C19.3538 18.9735 19.8742 19.1875 20.4169 19.1875C20.9596 19.1875 21.48 18.9735 21.8638 18.5926C22.2475 18.2116 22.4631 17.695 22.4631 17.1562V15.125H42.9252V17.1562C42.9252 17.695 43.1408 18.2116 43.5245 18.5926C43.9083 18.9735 44.4287 19.1875 44.9714 19.1875C45.5141 19.1875 46.0346 18.9735 46.4183 18.5926C46.802 18.2116 47.0176 17.695 47.0176 17.1562V15.125H53.1562V23.25H12.2321V15.125H18.3707ZM53.1562 55.75H12.2321V27.3125H53.1562V55.75ZM28.6017 33.4062V49.6562C28.6017 50.195 28.3862 50.7116 28.0024 51.0926C27.6187 51.4735 27.0982 51.6875 26.5555 51.6875C26.0128 51.6875 25.4924 51.4735 25.1086 51.0926C24.7249 50.7116 24.5093 50.195 24.5093 49.6562V36.6918L23.3788 37.2555C22.8931 37.4965 22.3308 37.5362 21.8156 37.3657C21.3005 37.1953 20.8746 36.8286 20.6318 36.3465C20.3889 35.8643 20.3489 35.3062 20.5207 34.7948C20.6924 34.2833 21.0617 33.8606 21.5474 33.6195L25.6398 31.5883C25.9519 31.4333 26.2988 31.36 26.6474 31.3756C26.996 31.3911 27.3348 31.4949 27.6316 31.6771C27.9284 31.8593 28.1734 32.1138 28.3432 32.4165C28.513 32.7191 28.602 33.0598 28.6017 33.4062ZM43.7334 41.1377L38.8328 47.625H42.9252C43.4679 47.625 43.9883 47.839 44.3721 48.2199C44.7558 48.6009 44.9714 49.1175 44.9714 49.6562C44.9714 50.195 44.7558 50.7116 44.3721 51.0926C43.9883 51.4735 43.4679 51.6875 42.9252 51.6875H34.7404C34.3604 51.6875 33.9879 51.5825 33.6646 51.3841C33.3414 51.1858 33.0801 50.9021 32.9102 50.5647C32.7402 50.2273 32.6683 49.8495 32.7024 49.4738C32.7365 49.0981 32.8754 48.7393 33.1034 48.4375L40.4646 38.6951C40.6321 38.4738 40.7522 38.2209 40.8176 37.9519C40.8831 37.6829 40.8924 37.4034 40.8451 37.1307C40.7979 36.858 40.6949 36.5977 40.5427 36.3659C40.3904 36.134 40.1921 35.9355 39.9598 35.7825C39.7274 35.6295 39.4661 35.5253 39.1917 35.4762C38.9174 35.427 38.6358 35.4341 38.3643 35.4969C38.0928 35.5597 37.837 35.6769 37.6128 35.8413C37.3885 36.0058 37.2005 36.214 37.0603 36.4531C36.9299 36.6915 36.7527 36.9015 36.5392 37.0708C36.3257 37.2401 36.0802 37.3653 35.8172 37.4389C35.5542 37.5125 35.2791 37.533 35.0079 37.4993C34.7368 37.4657 34.4752 37.3784 34.2386 37.2427C34.002 37.1071 33.7951 36.9257 33.6303 36.7094C33.4654 36.4931 33.3458 36.2462 33.2787 35.9833C33.2115 35.7203 33.198 35.4467 33.2391 35.1786C33.2801 34.9104 33.3749 34.6531 33.5178 34.4219C34.1937 33.2607 35.2366 32.3534 36.4848 31.8404C37.733 31.3275 39.1168 31.2376 40.4217 31.5847C41.7266 31.9318 42.8797 32.6966 43.7023 33.7604C44.5249 34.8242 44.971 36.1277 44.9714 37.4688C44.9757 38.7935 44.5407 40.0828 43.7334 41.1377Z" fill="white"/>
</svg>
