<svg width="41" height="40" viewBox="0 0 41 40" fill="none" xmlns="http://www.w3.org/2000/svg">
<g clip-path="url(#clip0_575_12)">
<path d="M23.3042 14H17.5874V20H23.3042C24.1057 20 24.8744 19.6839 25.4411 19.1213C26.0079 18.5587 26.3263 17.7956 26.3263 17C26.3263 16.2043 26.0079 15.4413 25.4411 14.8787C24.8744 14.3161 24.1057 14 23.3042 14ZM20.6112 0C9.48314 0 0.463867 8.95333 0.463867 20C0.463867 31.0467 9.48314 40 20.6112 40C31.7392 40 40.7584 31.0467 40.7584 20C40.7584 8.95333 31.7392 0 20.6112 0ZM23.3042 24H17.5874V30H13.5613V10H23.3059C25.176 10.0002 26.9695 10.7379 28.2918 12.0508C29.6141 13.3638 30.3568 15.1443 30.3566 17.0008C30.3563 18.8573 29.6132 20.6377 28.2906 21.9503C26.968 23.2629 25.1744 24.0002 23.3042 24Z" fill="#F8F8F8"/>
</g>
<defs>
<clipPath id="clip0_575_12">
<rect width="40.2946" height="40" fill="white" transform="translate(0.463867)"/>
</clipPath>
</defs>
</svg>
