<svg width="35" height="35" viewBox="0 0 35 35" fill="none" xmlns="http://www.w3.org/2000/svg">
<g clip-path="url(#clip0_260_879)">
<path d="M17.5 0C27.1649 0 35 7.83508 35 17.5C35 27.1655 27.1649 35 17.5 35C7.83453 35 0 27.1655 0 17.5C0 7.83508 7.83453 0 17.5 0ZM17.5 32.847C25.9432 32.847 32.8125 25.9432 32.8125 17.4999C32.8125 9.05673 25.9432 2.18743 17.5 2.18743C9.0568 2.18743 2.1875 9.05676 2.1875 17.4999C2.1875 25.9431 9.0568 32.847 17.5 32.847ZM9.84375 16.4062H16.4062V9.84375C16.4062 9.24 16.8962 8.75 17.5 8.75C18.1038 8.75 18.5938 9.24 18.5938 9.84375V16.4062H25.1562C25.76 16.4062 26.25 16.8962 26.25 17.5C26.25 18.1038 25.76 18.5938 25.1562 18.5938H18.5938V25.1562C18.5938 25.76 18.1038 26.25 17.5 26.25C16.8962 26.25 16.4062 25.76 16.4062 25.1562V18.5938H9.84375C9.24 18.5938 8.75 18.1038 8.75 17.5C8.75 16.8962 9.24 16.4062 9.84375 16.4062Z" fill="#340AF1"/>
</g>
<defs>
<clipPath id="clip0_260_879">
<rect width="35" height="35" fill="white" transform="matrix(-1 0 0 1 35 0)"/>
</clipPath>
</defs>
</svg>
