<svg width="66" height="65" viewBox="0 0 66 65" fill="none" xmlns="http://www.w3.org/2000/svg">
<path d="M32.8058 33.8541C30.2733 33.8541 27.8444 34.8528 26.0537 36.6305C24.2629 38.4082 23.2568 40.8193 23.2568 43.3333C23.2568 45.8473 24.2629 48.2584 26.0537 50.0361C27.8444 51.8138 30.2733 52.8125 32.8058 52.8125C35.3384 52.8125 37.7672 51.8138 39.558 50.0361C41.3487 48.2584 42.3548 45.8473 42.3548 43.3333C42.3548 40.8193 41.3487 38.4082 39.558 36.6305C37.7672 34.8528 35.3384 33.8541 32.8058 33.8541ZM28.7134 43.3333C28.7134 42.2559 29.1446 41.2225 29.912 40.4607C30.6795 39.6988 31.7204 39.2708 32.8058 39.2708C33.8912 39.2708 34.9321 39.6988 35.6996 40.4607C36.4671 41.2225 36.8982 42.2559 36.8982 43.3333C36.8982 44.4107 36.4671 45.444 35.6996 46.2059C34.9321 46.9678 33.8912 47.3958 32.8058 47.3958C31.7204 47.3958 30.6795 46.9678 29.912 46.2059C29.1446 45.444 28.7134 44.4107 28.7134 43.3333Z" fill="white"/>
<path d="M47.8826 13.8561L39.2094 1.78503L7.31853 27.0754L5.5506 27.0565V27.0836H4.15918V59.5836H61.453V27.0836H58.8284L53.6065 11.9196L47.8826 13.8561ZM53.0636 27.0836H25.7044L46.0819 20.1882L50.2343 18.8692L53.0636 27.0836ZM42.4915 15.6815L21.4565 22.799L38.1153 9.58774L42.4915 15.6815ZM9.61574 49.208V37.4538C10.7675 37.0502 11.8138 36.3959 12.6777 35.5388C13.5416 34.6816 14.2013 33.6434 14.6085 32.5002H51.0037C51.4105 33.6439 52.0701 34.6827 52.934 35.5403C53.798 36.3979 54.8444 37.0527 55.9965 37.4565V49.2107C54.8444 49.6145 53.798 50.2692 52.934 51.1269C52.0701 51.9845 51.4105 53.0232 51.0037 54.1669H14.6139C14.2052 53.0231 13.5444 51.9844 12.6796 51.1264C11.8149 50.2685 10.7682 49.6131 9.61574 49.208Z" fill="white"/>
</svg>
