<svg width="45" height="45" viewBox="0 0 45 45" fill="none" xmlns="http://www.w3.org/2000/svg">
<path d="M22.8057 0.833374C25.7001 0.833374 28.4758 1.97474 30.5225 4.00638C32.5691 6.03803 33.7188 8.79353 33.7188 11.6667C33.7188 14.5399 32.5691 17.2954 30.5225 19.327C28.4758 21.3587 25.7001 22.5 22.8057 22.5C19.9114 22.5 17.1356 21.3587 15.089 19.327C13.0424 17.2954 11.8926 14.5399 11.8926 11.6667C11.8926 8.79353 13.0424 6.03803 15.089 4.00638C17.1356 1.97474 19.9114 0.833374 22.8057 0.833374ZM22.8057 27.9167C34.8647 27.9167 44.6319 32.7646 44.6319 38.75V44.1667H0.979492V38.75C0.979492 32.7646 10.7467 27.9167 22.8057 27.9167Z" fill="white"/>
</svg>
